# xmcd
#
# Track frame offsets:
#	182
#	19957
#	36855
#	54340
#	64960
#	84062
#	103290
#	120107
#	135637
#	153865
#
# Disc length: 2317 seconds
#
# Revision: 5
# Processed by: cddbd v1.5.2PL0 Copyright (c) Steve Scherf et al.
# Submitted via: EZCDAudioConverter 6.0.5.1
#
DISCID=76090b0a
DTITLE=Mac Davis - Very Best And More
DYEAR=1984
DGENRE=Country
TTITLE0=It's Hard To Be Humble
TTITLE1=Hooked on Music
TTITLE2=Rodeo Clown
TTITLE3=You're My Bestest Friend
TTITLE4=Secrets
TTITLE5=Texas in My Rear View Mirror
TTITLE6=Let's Keep it That Way
TTITLE7=Midnight Crazy
TTITLE8=Shame on the Moon
TTITLE9=Most of All
EXTD=
EXTT0=
EXTT1=
EXTT2=
EXTT3=
EXTT4=
EXTT5=
EXTT6=
EXTT7=
EXTT8=
EXTT9=
PLAYORDER=
